<svg xmlns="http://www.w3.org/2000/svg" version="1.1" xmlns:xlink="http://www.w3.org/1999/xlink" xmlns:svgjs="http://svgjs.dev/svgjs" width="100%" height="100%" viewBox="0 0 1000 600"><rect width="1000" height="600" x="0" y="0" fill="#262223"/><g><circle r="166.66666666666666" cx="321.52395121256507" cy="343.7461874972588" fill="#ddc6b6" transform="matrix(0.8071948068890871,0,0,0.8071948068890873,0,22.529858329678945)"/><path d="M284.24936893509266 272.91288261376985L284.24936893509266 272.91288261376985L358.8442761229345 272.91288261376985Q362.28756314983644 272.91288261376985 364.3130261068376 271.8133455799692Q366.3384890638387 270.7138085461686 367.9588594294396 269.73001225276806Q369.57922979504053 268.74621595936753 371.6625631222417 268.74621595936753L371.6625631222417 268.74621595936753Q374.26672978124316 268.74621595936753 375.771359406444 270.04829928886824Q377.2759890316449 271.35038261836894 377.99936865914526 274.35964186877067L377.99936865914526 274.35964186877067L385.0884890086493 307.28788251258914Q385.6093223404495 309.7763084311905 384.8280723427491 311.30987324149135Q384.04682234504867 312.81450286669224 381.96348901784745 313.21959545809244L381.96348901784745 313.21959545809244Q380.0827019863464 313.6536232345927 378.5780723611456 312.87237323689226Q377.07344273594475 312.0911232391918 376.1185816276442 309.8920491715906L376.1185816276442 309.8920491715906Q371.1417297904414 297.79714179978384 367.4958964678394 291.7786232989804Q363.8500631452373 285.73116961307704 359.94381315673513 283.6478362858759Q356.03756316823296 281.5645029586747 350.0769150376296 281.5645029586747L350.0769150376296 281.5645029586747L333.6417299008204 281.5645029586747L333.6417299008204 403.9603359317433Q333.6417299008204 406.2462155546446 334.9727484154211 407.6061692543454Q336.3327021151219 408.9661229540461 338.8500632188233 409.5737618411465L338.8500632188233 409.5737618411465L345.70770208752714 410.8179748004472Q349.6718224462294 411.85964146404774 349.6718224462294 414.9846414548495L349.6718224462294 414.9846414548495Q349.6718224462294 418.7462155178516 344.5792298686265 418.7462155178516L344.5792298686265 418.7462155178516L298.51441518940067 418.7462155178516Q295.9102485303992 418.7462155178516 294.6660355710985 417.704548854251Q293.42182261179784 416.66288219065046 293.42182261179784 414.9846414548495L293.42182261179784 414.9846414548495Q293.42182261179784 411.85964146404774 297.3859429705001 410.8179748004472L297.3859429705001 410.8179748004472L304.2435818392039 409.5737618411465Q306.76094294290533 408.9661229540461 308.06302627240603 407.6061692543454Q309.36510960190674 406.2462155546446 309.36510960190674 403.9603359317433L309.36510960190674 403.9603359317433L309.36510960190674 281.5645029586747L293.01673002039763 281.5645029586747Q287.05608188979426 281.5645029586747 283.14983190129203 283.6478362858759Q279.24358191278986 285.73116961307704 275.59774859018785 291.7786232989804Q271.9519152675858 297.79714179978384 266.975063430383 309.8920491715906L266.975063430383 309.8920491715906Q266.02020232208247 312.0911232391918 264.5155726968816 312.87237323689226Q263.0109430716808 313.6536232345927 261.01441529977967 313.21959545809244L261.01441529977967 313.21959545809244Q259.04682271297855 312.81450286669224 258.2655727152781 311.30987324149135Q257.4843227175777 309.7763084311905 257.8894153089779 307.28788251258914L257.8894153089779 307.28788251258914L264.97853565848186 274.35964186877067Q265.81765602638234 271.35038261836894 267.26441528138315 270.04829928886824Q268.740109721484 268.74621595936753 271.4310819357855 268.74621595936753L271.4310819357855 268.74621595936753Q273.51441526298663 268.74621595936753 275.07691525838754 269.73001225276806Q276.6394152537884 270.7138085461686 278.72274858098956 271.8133455799692Q280.8060819081908 272.91288261376985 284.24936893509266 272.91288261376985Z " fill="#262223" transform="matrix(0.8071948068890871,0,0,0.8071948068890873,0,22.529858329678945)"/><path d="M597.6046584214132 272.84722176636416L597.6046584214132 272.84722176636416L671.0240541740122 272.84722176636416Q674.4130798119329 272.84722176636416 676.4066243048273 271.76501189879286Q678.4001687977218 270.6828020312216 679.9950043920375 269.7145089918157Q681.5898399863529 268.74621595240984 683.6403428933301 268.74621595240984L683.6403428933301 268.74621595240984Q686.2034715270516 268.74621595240984 687.6843902932018 270.0277802692706Q689.1653090593519 271.3093445861313 689.8772892353857 274.2711821184316L689.8772892353857 274.2711821184316L696.8546949605163 306.6805197314874Q697.3673206872605 309.1297315370435 696.5983820971442 310.63912951023497Q695.8294435070277 312.12004827638515 693.7789406000505 312.51875717496404L693.7789406000505 312.51875717496404Q691.9277921423628 312.9459452805843 690.4468733762127 312.17700669046786Q688.9659546100625 311.40806810035144 688.026140777698 309.24364836520886L688.026140777698 309.24364836520886Q683.1277171665859 297.3393398219248 679.5393370793757 291.41566475732407Q675.9509569921657 285.46351048568204 672.1062640415836 283.4130075787049Q668.2615710910014 281.3625046717277 662.3948544404834 281.3625046717277L662.3948544404834 281.3625046717277L646.2186648409969 281.3625046717277L646.2186648409969 401.8295504566361Q646.2186648409969 404.0794078129028 647.5287083648989 405.4179305438462Q648.8672310958424 406.7564532747896 651.3449221084397 407.3545166226579L651.3449221084397 407.3545166226579L658.0944941772395 408.579122525436Q661.9961455419045 409.6043739789245 661.9961455419045 412.6801283393903L661.9961455419045 412.6801283393903Q661.9961455419045 416.38242525476574 656.983805102627 416.38242525476574L656.983805102627 416.38242525476574L611.6449074927986 416.38242525476574Q609.0817788590771 416.38242525476574 607.8571729562991 415.35717380127716Q606.632567053521 414.3319223477886 606.632567053521 412.6801283393903L606.632567053521 412.6801283393903Q606.632567053521 409.6043739789245 610.5342184181859 408.579122525436L610.5342184181859 408.579122525436L617.2837904869857 407.3545166226579Q619.7614814995832 406.7564532747896 621.043045816444 405.4179305438462Q622.3246101333045 404.0794078129028 622.3246101333045 401.8295504566361L622.3246101333045 401.8295504566361L622.3246101333045 281.3625046717277L606.2338581549421 281.3625046717277Q600.3671415044241 281.3625046717277 596.522448553842 283.4130075787049Q592.6777556032598 285.46351048568204 589.0893755160497 291.41566475732407Q585.5009954288397 297.3393398219248 580.6025718177275 309.24364836520886L580.6025718177275 309.24364836520886Q579.662757985363 311.40806810035144 578.1818392192129 312.17700669046786Q576.7009204530627 312.9459452805843 574.7358551672096 312.51875717496404L574.7358551672096 312.51875717496404Q572.7992690883978 312.12004827638515 572.0303304982814 310.63912951023497Q571.2613919081649 309.1297315370435 571.6601008067438 306.6805197314874L571.6601008067438 306.6805197314874L578.6375065318745 274.2711821184316Q579.4634035360737 271.3093445861313 580.8873638881411 270.0277802692706Q582.3398034472499 268.74621595240984 584.9883697020954 268.74621595240984L584.9883697020954 268.74621595240984Q587.0388726090725 268.74621595240984 588.5767497893055 269.7145089918157Q590.1146269695383 270.6828020312216 592.1651298765155 271.76501189879286Q594.2156327834927 272.84722176636416 597.6046584214132 272.84722176636416ZM753.2435249023883 318.0722025480272L753.2435249023883 318.0722025480272Q768.3090254272622 318.0722025480272 779.7861458649261 324.4800241323308Q791.2917455096314 330.8878457166345 797.785004715059 342.25104932613294Q804.306743127528 353.64273214267274 804.306743127528 368.5088782182572L804.306743127528 368.5088782182572Q804.306743127528 382.9478361882214 797.6995670939349 394.3395190047612Q791.0639118533005 405.73120182130106 779.5013537945126 412.2244610267287Q767.9103165286833 418.74619943919777 752.5315447263546 418.74619943919777L752.5315447263546 418.74619943919777Q737.5514818226047 418.74619943919777 726.074361384941 412.2814194408114Q714.5972409472771 405.81663944242507 708.075502534808 394.45343583292663Q701.5822433293803 383.0617530163868 701.5822433293803 368.3095237689678L701.5822433293803 368.3095237689678Q701.5822433293803 353.64273214267274 708.1324609488908 342.3649661542984Q714.6826785684011 331.08720016592395 726.330674248313 324.5654617534549Q737.978669928225 318.0722025480272 753.2435249023883 318.0722025480272ZM760.4202850768085 410.0315620845448L760.4202850768085 410.0315620845448Q769.021005603296 408.8069561817668 774.3750965270697 402.99719794533144Q779.7007082438021 397.2159189159375 781.4948982874071 387.41907169371325Q783.2890883310121 377.62222447148906 781.1246685958695 364.40787240430285L781.1246685958695 364.40787240430285Q778.874811239603 350.9656866807859 773.8055123862426 342.1656117050089Q768.7362135328825 333.33705752219055 761.4455365302971 329.4354061575257Q754.1548595277116 325.5337547928608 745.3547845519346 326.7868399026802L745.3547845519346 326.7868399026802Q736.839501646571 328.01144580545815 731.456931515756 333.79272483485215Q726.074361384941 339.60248307128745 724.3371297554186 349.37085108647034Q722.5998981258963 359.1676983086945 724.7358386539975 372.4105295829221L724.7358386539975 372.4105295829221Q726.9856960102641 385.7387984782737 732.0834740706656 394.59583186813336Q737.1527729240258 403.45286525799304 744.41497071957 407.3545166226579Q751.7056477221555 411.2561679873228 760.4202850768085 410.0315620845448ZM824.18522964239 412.6801283393903L824.18522964239 412.6801283393903Q824.18522964239 409.6043739789245 828.0868810070549 408.579122525436L828.0868810070549 408.579122525436L834.8649322828961 407.3545166226579Q837.314144088452 406.7564532747896 838.6526668193956 405.4179305438462Q839.991189550339 404.0794078129028 839.991189550339 401.8295504566361L839.991189550339 401.8295504566361L839.991189550339 287.40009656449377Q839.991189550339 285.15023920822716 838.6526668193956 283.81171647728377Q837.314144088452 282.4731937463403 834.8649322828961 281.875130398472L834.8649322828961 281.875130398472L828.0868810070549 280.65052449569396Q824.18522964239 279.6252730422053 824.18522964239 276.5495186817396L824.18522964239 276.5495186817396Q824.18522964239 274.78380784517594 825.409835545168 273.81551480577Q826.6629206549874 272.84722176636416 829.2260492887089 272.84722176636416L829.2260492887089 272.84722176636416L879.0361824040291 272.84722176636416Q898.2026887428574 272.84722176636416 913.8377734085583 278.42914634646866Q929.4728580742591 284.0110709265732 940.7506240626336 294.178147840335Q952.028390051008 304.3167455470554 958.0944611508154 318.15764016915125Q964.1320530435815 331.9985347912471 964.1320530435815 348.60191249635386L964.1320530435815 348.60191249635386Q964.1320530435815 368.19560694080235 955.1611028255564 383.46046191496566Q946.1901526075313 398.7537960961704 929.2735036249697 407.55387107194736Q912.3568546424082 416.38242525476574 888.2634454854264 416.38242525476574L888.2634454854264 416.38242525476574L829.2260492887089 416.38242525476574Q826.6629206549874 416.38242525476574 825.409835545168 415.35717380127716Q824.18522964239 414.3319223477886 824.18522964239 412.6801283393903ZM874.7358221407854 408.1804136268571L886.6401306840695 408.1804136268571Q902.9302371117215 408.1804136268571 914.6636704127574 401.25996631580915Q926.3971037137934 394.3395190047612 932.8049252980971 380.9542916953269Q939.2127468824007 367.56906438589266 939.2127468824007 348.00384914848553L939.2127468824007 348.00384914848553Q939.2127468824007 332.71051496728086 934.8554282050742 320.3790183183765Q930.4981095277477 308.01904246243083 922.2676186927978 299.24744669369517Q914.0086486508063 290.4758509249595 902.4176113849771 285.77678176313685Q890.826574119148 281.04923339427285 876.3876161491836 281.04923339427285L876.3876161491836 281.04923339427285L863.8567650509899 281.04923339427285L863.8567650509899 399.6651307214936Q863.8567650509899 404.0794078129028 866.5338105128768 406.12991071987994Q869.2108559747636 408.1804136268571 874.7358221407854 408.1804136268571L874.7358221407854 408.1804136268571ZM1032.937817255482 318.0722025480272L1032.937817255482 318.0722025480272Q1048.0033177803557 318.0722025480272 1059.4804382180196 324.4800241323308Q1070.9575586556834 330.8878457166345 1077.4792970681524 342.25104932613294Q1084.0010354806216 353.64273214267274 1084.0010354806216 368.5088782182572L1084.0010354806216 368.5088782182572Q1084.0010354806216 382.9478361882214 1077.3653802399872 394.3395190047612Q1070.758204206394 405.73120182130106 1059.167166940565 412.2244610267287Q1047.604608881777 418.74619943919777 1032.2258370794484 418.74619943919777L1032.2258370794484 418.74619943919777Q1017.2457741756983 418.74619943919777 1005.7686537380345 412.2814194408114Q994.2915333003706 405.81663944242507 987.7697948879016 394.45343583292663Q981.2480564754326 383.0617530163868 981.2480564754326 368.3095237689678L981.2480564754326 368.3095237689678Q981.2480564754326 353.64273214267274 987.8267533019844 342.3649661542984Q994.3769709214947 331.08720016592395 1006.0249666014066 324.5654617534549Q1017.6444830742772 318.0722025480272 1032.937817255482 318.0722025480272ZM1040.114577429902 410.0315620845448L1040.114577429902 410.0315620845448Q1048.7152979563898 408.8069561817668 1054.0409096731219 402.99719794533144Q1059.3950005968957 397.2159189159375 1061.1891906405008 387.41907169371325Q1062.9833806841057 377.62222447148906 1060.8189609489632 364.40787240430285L1060.8189609489632 364.40787240430285Q1058.5691035926966 350.9656866807859 1053.4998047393365 342.1656117050089Q1048.4020266789348 333.33705752219055 1041.1398288833907 329.4354061575257Q1033.849151880805 325.5337547928608 1025.0490769050282 326.7868399026802L1025.0490769050282 326.7868399026802Q1016.5337939996646 328.01144580545815 1011.1512238688496 333.79272483485215Q1005.7686537380345 339.60248307128745 1004.0314221085122 349.37085108647034Q1002.2657112719486 359.1676983086945 1004.4301310070911 372.4105295829221L1004.4301310070911 372.4105295829221Q1006.6799883633578 385.7387984782737 1011.749287216718 394.59583186813336Q1016.8470652771194 403.45286525799304 1024.1092630726635 407.3545166226579Q1031.399940075249 411.2561679873228 1040.114577429902 410.0315620845448Z " fill="#ddc6b6" transform="matrix(0.8071948068890871,0,0,0.8071948068890873,0,22.529858329678945)"/></g></svg>